<svg enable-background="new 0 0 140 140" height="512" viewBox="0 0 140 140" width="512" xmlns="http://www.w3.org/2000/svg"><circle cx="70" cy="70" fill="#de594e" r="64"/><path d="m107.1542587 39.4600945c-.789978-1.4599609-2.3299561-2.4699707-4.1099854-2.4699707h-66.0899657c-2.6000366 0-4.7000122 2.0999756-4.7000122 4.6999512v58.6199989c0 1.1700439.4400024 2.2199707 1.1499634 3.0500488h-.0199585l.1300049.1300049c.0799561.0899658.1699829.1800537.2599487.2600098l29.9389038 29.9388428c2.0689087.2019043 4.164978.3110352 6.2868652.3110352 35.3463135 0 63.9999924-28.6538086 63.9999924-64 0-1.2937012-.0498657-2.5750732-.1255493-3.8496094l-26.7001877-26.7003212z" opacity=".1"/><path d="m92.0503387 39.6136169-53.97332 2.3523483c-2.5936546 0 .2613716-.5679626.2613716 2.025631l-6.0809326 6.9263611v49.3948097c0 2.5935974 2.1025467 4.696373 4.6962051 4.696373h66.0926361c2.5936508 0 4.6962051-2.1027756 4.6962051-4.696373v-49.4601516l-2.4928741-9.540081c-.0000037-2.5935975-10.6056327-1.6989175-13.1992912-1.6989175z" fill="#ededed"/><path d="m107.7466278 41.6885338v9.2199707h-48.7399902l-.4199829-2.0397949c-.1199951-.5900879-.6400146-1.0102539-1.2399902-1.0102539h-12.9000245c-.5999756 0-1.1199951.420166-1.2399902 1.0102539l-.4199829 2.0397949h-10.5300293v-9.2199707c0-2.6000977 2.1000366-4.6999512 4.7000122-4.6999512h66.0899658c2.5900269 0 4.7000122 2.0998535 4.7000122 4.6999512z" fill="#4da0dc"/><g fill="#ededed"><path d="m98.1345062 41.5341148c-1.3334351 0-2.4143677 1.0810547-2.4143677 2.4145508 0 1.333252 1.0809326 2.4143066 2.4143677 2.4143066 1.333374 0 2.4143066-1.0810547 2.4143066-2.4143066.0000001-1.3334961-1.0809326-2.4145508-2.4143066-2.4145508z"/><path d="m90.3208389 41.5341148c-1.3334351 0-2.4143677 1.0810547-2.4143677 2.4145508 0 1.333252 1.0809326 2.4143066 2.4143677 2.4143066 1.333374 0 2.4143066-1.0810547 2.4143066-2.4143066.0000001-1.3334961-1.0809325-2.4145508-2.4143066-2.4145508z"/><path d="m82.5071793 41.5341148c-1.3334351 0-2.4143677 1.0810547-2.4143677 2.4145508 0 1.333252 1.0809326 2.4143066 2.4143677 2.4143066 1.333374 0 2.4143066-1.0810547 2.4143066-2.4143066 0-1.3334961-1.0809326-2.4145508-2.4143066-2.4145508z"/></g><path d="m52.9266205 70.6187057 3.960022 4.9697266c-2.7199707 3-4.4299927 6.9399414-4.5800171 11.2802734h-6.3099976c.170044-6.3300781 2.7800293-12.0502929 6.9299927-16.25z" fill="#feda6f"/><path d="m69.0366669 63.4985924v6.3100548c-4.1300049.2199707-7.8800049 1.8498535-10.7700195 4.4199219l-3.9199829-4.9299316c3.9799804-3.4401857 9.079956-5.5800744 14.6900024-5.8000451z" fill="#4abba4"/><path d="m85.656662 69.2986374-3.9299927 4.9299316c-2.8900146-2.5700684-6.6300049-4.1999512-10.7600098-4.4199219v-6.3100548c5.6099854.2199708 10.7199707 2.3598595 14.6900025 5.8000451z" fill="#4da0dc"/><path d="m93.9966278 86.8687057h-6.3099976c-.1599731-4.340332-1.8599854-8.2802734-4.5799561-11.2802734l3.9599609-4.9697266c4.1600343 4.1997071 6.7600099 9.9199219 6.9299928 16.25z" fill="#dd584d"/><path d="m79.6843338 76.680481s-10.8098907 7.0839539-11.8389206 8.1129837c-1.0287857 1.0287857-1.0288162 2.6969986.000061 3.7258759 1.0289078 1.0289078 2.6970901 1.0288467 3.7258759.000061 1.0290298-1.0290299 8.1129837-11.8389206 8.1129837-11.8389206z" fill="#344d5b"/></svg>